<?xml version="1.0" encoding="UTF-8" standalone="no"?>
<!-- Created with Inkscape (http://www.inkscape.org/) -->

<svg
   xmlns:dc="http://purl.org/dc/elements/1.1/"
   xmlns:cc="http://creativecommons.org/ns#"
   xmlns:rdf="http://www.w3.org/1999/02/22-rdf-syntax-ns#"
   xmlns:svg="http://www.w3.org/2000/svg"
   xmlns="http://www.w3.org/2000/svg"
   xmlns:sodipodi="http://sodipodi.sourceforge.net/DTD/sodipodi-0.dtd"
   xmlns:inkscape="http://www.inkscape.org/namespaces/inkscape"
   version="1.1"
   id="svg2"
   xml:space="preserve"
   width="666.66669"
   height="666.66669"
   viewBox="0 0 666.66669 666.66669"
   sodipodi:docname="checked-hovered.svg"
   inkscape:version="0.92.3 (2405546, 2018-03-11)"><metadata
     id="metadata8"><rdf:RDF><cc:Work
         rdf:about=""><dc:format>image/svg+xml</dc:format><dc:type
           rdf:resource="http://purl.org/dc/dcmitype/StillImage" /><dc:title></dc:title></cc:Work></rdf:RDF></metadata><defs
     id="defs6"><clipPath
       clipPathUnits="userSpaceOnUse"
       id="clipPath20"><path
         d="M 0,500 H 500 V 0 H 0 Z"
         id="path18"
         inkscape:connector-curvature="0" /></clipPath><clipPath
       clipPathUnits="userSpaceOnUse"
       id="clipPath96"><path
         d="M 141.91,96.7775 H 362.877 V 87.5576 H 141.91 Z"
         id="path94"
         inkscape:connector-curvature="0" /></clipPath><clipPath
       clipPathUnits="userSpaceOnUse"
       id="clipPath116"><path
         d="m 346.26,197.035 h 72.709 V 97.6773 H 346.26 Z"
         id="path114"
         inkscape:connector-curvature="0" /></clipPath><clipPath
       clipPathUnits="userSpaceOnUse"
       id="clipPath236"><path
         d="M 95.9582,191.409 H 168.667 V 93.2421 H 95.9582 Z"
         id="path234"
         inkscape:connector-curvature="0" /></clipPath><clipPath
       clipPathUnits="userSpaceOnUse"
       id="clipPath272"><path
         d="m 243.41,413.316 h 22.175 V 388.451 H 243.41 Z"
         id="path270"
         inkscape:connector-curvature="0" /></clipPath><clipPath
       clipPathUnits="userSpaceOnUse"
       id="clipPath292"><path
         d="M 185.172,390.61 H 319.61 V 371.707 H 185.172 Z"
         id="path290"
         inkscape:connector-curvature="0" /></clipPath><clipPath
       clipPathUnits="userSpaceOnUse"
       id="clipPath308"><path
         d="M 212.682,342.35 H 327.088 V 125.24 H 212.682 Z"
         id="path306"
         inkscape:connector-curvature="0" /></clipPath><clipPath
       clipPathUnits="userSpaceOnUse"
       id="clipPath464"><path
         d="m 222.248,42.6559 h 89.361 v -6.118 h -89.361 z"
         id="path462"
         inkscape:connector-curvature="0" /></clipPath><clipPath
       clipPathUnits="userSpaceOnUse"
       id="clipPath548"><path
         d="m 250.448,119.713 h 8.419 V 61.8176 h -8.419 z"
         id="path546"
         inkscape:connector-curvature="0" /></clipPath><clipPath
       clipPathUnits="userSpaceOnUse"
       id="clipPath568"><path
         d="m 232.221,167.794 h 15.794 v -24.191 h -15.794 z"
         id="path566"
         inkscape:connector-curvature="0" /></clipPath><clipPath
       clipPathUnits="userSpaceOnUse"
       id="clipPath584"><path
         d="m 254.039,186.769 h 5.141 v -2.154 h -5.141 z"
         id="path582"
         inkscape:connector-curvature="0" /></clipPath><clipPath
       clipPathUnits="userSpaceOnUse"
       id="clipPath600"><path
         d="m 248.742,177.804 h 28.883 v -46.225 h -28.883 z"
         id="path598"
         inkscape:connector-curvature="0" /></clipPath><clipPath
       clipPathUnits="userSpaceOnUse"
       id="clipPath636"><path
         d="m 192.294,198.465 h 5.646 v -6.368 h -5.646 z"
         id="path634"
         inkscape:connector-curvature="0" /></clipPath><clipPath
       clipPathUnits="userSpaceOnUse"
       id="clipPath652"><path
         d="m 192.294,198.465 h 74.943 v -95.127 h -74.943 z"
         id="path650"
         inkscape:connector-curvature="0" /></clipPath><clipPath
       clipPathUnits="userSpaceOnUse"
       id="clipPath696"><path
         d="m 330.296,80.8099 h 42.525 v -3.7474 h -42.525 z"
         id="path694"
         inkscape:connector-curvature="0" /></clipPath><clipPath
       clipPathUnits="userSpaceOnUse"
       id="clipPath732"><path
         d="m 364.383,203.395 h 8.478 v -34.151 h -8.478 z"
         id="path730"
         inkscape:connector-curvature="0" /></clipPath><clipPath
       clipPathUnits="userSpaceOnUse"
       id="clipPath756"><path
         d="m 352.894,164.913 h 12.067 v -33.951 h -12.067 z"
         id="path754"
         inkscape:connector-curvature="0" /></clipPath><clipPath
       clipPathUnits="userSpaceOnUse"
       id="clipPath800"><path
         d="m 341.657,203.677 h 6.375 v -35.41 h -6.375 z"
         id="path798"
         inkscape:connector-curvature="0" /></clipPath><clipPath
       clipPathUnits="userSpaceOnUse"
       id="clipPath824"><path
         d="m 304.494,196.459 h 28.662 v -13.672 h -28.662 z"
         id="path822"
         inkscape:connector-curvature="0" /></clipPath><clipPath
       clipPathUnits="userSpaceOnUse"
       id="clipPath860"><path
         d="M 84.3738,83.1083 H 154.136 V 78.3321 H 84.3738 Z"
         id="path858"
         inkscape:connector-curvature="0" /></clipPath><clipPath
       clipPathUnits="userSpaceOnUse"
       id="clipPath896"><path
         d="m 122.314,225.626 h 34.073 v -13.152 h -34.073 z"
         id="path894"
         inkscape:connector-curvature="0" /></clipPath><clipPath
       clipPathUnits="userSpaceOnUse"
       id="clipPath940"><path
         d="m 101.781,212.624 h 6.403 v -20.1 h -6.403 z"
         id="path938"
         inkscape:connector-curvature="0" /></clipPath><clipPath
       clipPathUnits="userSpaceOnUse"
       id="clipPath956"><path
         d="m 120.577,217.637 h 7.614 v -6.03 h -7.614 z"
         id="path954"
         inkscape:connector-curvature="0" /></clipPath><clipPath
       clipPathUnits="userSpaceOnUse"
       id="clipPath984"><path
         d="M 93.7727,208.093 H 111.688 V 186.841 H 93.7727 Z"
         id="path982"
         inkscape:connector-curvature="0" /></clipPath><clipPath
       clipPathUnits="userSpaceOnUse"
       id="clipPath1036"><path
         d="M 0,500 H 500 V 0 H 0 Z"
         id="path1034"
         inkscape:connector-curvature="0" /></clipPath></defs><sodipodi:namedview
     pagecolor="#ffffff"
     bordercolor="#666666"
     borderopacity="1"
     objecttolerance="10"
     gridtolerance="10"
     guidetolerance="10"
     inkscape:pageopacity="0"
     inkscape:pageshadow="2"
     inkscape:window-width="1366"
     inkscape:window-height="706"
     id="namedview4"
     showgrid="false"
     inkscape:zoom="0.76949998"
     inkscape:cx="247.37547"
     inkscape:cy="209.07826"
     inkscape:window-x="0"
     inkscape:window-y="32"
     inkscape:window-maximized="1"
     inkscape:current-layer="g10" /><g
     id="g10"
     inkscape:groupmode="layer"
     inkscape:label="2159060"
     transform="matrix(1.3333333,0,0,-1.3333333,0,666.66667)"><g
       id="g426"
       transform="matrix(13.391512,0,0,13.391512,368.56711,7.9749468)"
       style="stroke:#000000;stroke-opacity:1"><path
         d="m 0,0 h -21.194 c -1.161,0 -2.102,0.941 -2.102,2.102 v 21.193 c 0,1.162 0.941,2.102 2.102,2.102 H 0 c 1.161,0 2.102,-0.94 2.102,-2.102 V 2.102 C 2.102,0.941 1.161,0 0,0 Z"
         style="fill:none;stroke:#000000;stroke-width:1.11099994;stroke-linecap:butt;stroke-linejoin:miter;stroke-miterlimit:10;stroke-dasharray:none;stroke-opacity:1"
         id="path428"
         inkscape:connector-curvature="0" /></g><g
       id="g442"
       transform="matrix(13.391512,0,0,13.391512,226.65458,57.283827)"
       style="fill:#ffffff"><path
         d="m 0,0 c -0.572,0 -1.117,0.254 -1.484,0.698 l -9.574,11.561 c -0.678,0.819 -0.564,2.034 0.256,2.713 0.82,0.679 2.033,0.565 2.713,-0.256 l 7.881,-9.518 17,26.823 c 0.57,0.9 1.762,1.165 2.659,0.596 0.899,-0.569 1.166,-1.76 0.596,-2.659 L 1.627,0.895 C 1.297,0.374 0.737,0.042 0.122,0.003 0.082,0.001 0.041,0 0,0"
         style="fill:#ffffff;fill-opacity:1;fill-rule:nonzero;stroke:none"
         id="path444"
         inkscape:connector-curvature="0" /></g></g></svg>