<?xml version="1.0" encoding="UTF-8" standalone="no"?>
<svg
   xmlns:dc="http://purl.org/dc/elements/1.1/"
   xmlns:cc="http://creativecommons.org/ns#"
   xmlns:rdf="http://www.w3.org/1999/02/22-rdf-syntax-ns#"
   xmlns:svg="http://www.w3.org/2000/svg"
   xmlns="http://www.w3.org/2000/svg"
   xmlns:sodipodi="http://sodipodi.sourceforge.net/DTD/sodipodi-0.dtd"
   xmlns:inkscape="http://www.inkscape.org/namespaces/inkscape"
   width="500pt"
   height="500pt"
   viewBox="0 0 500 500"
   version="1.2"
   id="svg469"
   sodipodi:docname="page 2 artwork.svg"
   inkscape:version="0.92.3 (2405546, 2018-03-11)">
  <metadata
     id="metadata475">
    <rdf:RDF>
      <cc:Work
         rdf:about="">
        <dc:format>image/svg+xml</dc:format>
        <dc:type
           rdf:resource="http://purl.org/dc/dcmitype/StillImage" />
        <dc:title />
      </cc:Work>
    </rdf:RDF>
  </metadata>
  <defs
     id="defs473" />
  <sodipodi:namedview
     pagecolor="#ffffff"
     bordercolor="#666666"
     borderopacity="1"
     objecttolerance="10"
     gridtolerance="10"
     guidetolerance="10"
     inkscape:pageopacity="0"
     inkscape:pageshadow="2"
     inkscape:window-width="1366"
     inkscape:window-height="706"
     id="namedview471"
     showgrid="false"
     inkscape:zoom="1.0012632"
     inkscape:cx="328.45687"
     inkscape:cy="191.73908"
     inkscape:window-x="0"
     inkscape:window-y="32"
     inkscape:window-maximized="1"
     inkscape:current-layer="g942" />
  <g
     id="g942">
    <g
       id="g38"
       transform="translate(0,31.5)">
      <g
         transform="matrix(1.4113368,-2.3488948,2.3967008,1.3285342,-1727.681,4929.2952)"
         id="g952">
        <path
           style="fill:#d7cfeb;fill-opacity:1;fill-rule:nonzero;stroke:none"
           d="m 1848.8371,-144.1326 c -0.055,0.0742 -0.25,-6.42187 -9.9922,-12.23437 -9.918,-6.19922 -30.5508,-4.14844 -33.5,-10.54297 -3.0977,-6.85156 9.957,-5.93359 15.3047,-11.39063 5.3945,-5.57812 7.1601,-8.10937 -0.7149,-9.25 -7.8359,-1.01562 -12.5586,-1.41015 -12.8828,-7.85156 -0.3281,-6.51172 -12.9336,-2.67578 -19.5937,-7.08984 -6.8594,-4.39844 -3.5899,-10.97656 8.9258,-11.29297 12.3125,-0.008 12.6523,-2.05469 9.0039,-3.76172 -3.586,-1.6875 -14.5079,-4.35156 -10.1329,-7.93359 4.4961,-3.625 11.4805,-1.00782 7.629,-4.98438 -3.8125,-4.01562 -12.5665,-6.58594 -8.6329,-11.39453 3.918,-4.86328 14.7149,-5.01172 21.4844,6.69141 6.6367,11.67187 8.8164,14.91015 14.8086,15.90234 2.7149,0.48828 5.2813,-0.66406 7.9766,-1.82031 3.0976,-1.32422 6.3711,-2.65235 10.25,-1.48047 7.1953,2.28125 6.2148,9.10937 2.2461,13.82422 -4.0743,4.73047 -10.793,14.03906 -6.211,17.79297 4.4141,3.78906 9.1992,-2.41797 15.2891,-3.82032 6.7617,-1.55468 14.832,3.86329 8.9219,13.55469 -6.168,9.57031 -15.2774,12.71875 -14.3516,34.02344 -0.8477,-0.28516 -1.8867,0.61719 -2.9297,1.52344 -1.0273,0.89062 -2.0547,1.78515 -2.8984,1.53515"
           id="path94"
           inkscape:connector-curvature="0" />
        <path
           style="fill:#c2b8e1;fill-opacity:1;fill-rule:nonzero;stroke:none"
           d="m 1842.8136,-166.28103 c -8.1015,-2.51172 -18.8593,-2.9336 -25.1953,-2.9336 -3.1797,0 -5.25,0.10547 -5.3125,0.10938 -0.01,0 -0.016,0 -0.023,0 -0.1914,0 -0.3515,-0.15235 -0.3632,-0.34375 -0.012,-0.20313 0.1406,-0.375 0.3476,-0.38672 0.062,-0.004 2.1328,-0.10938 5.3203,-0.10938 6.3281,0 17.0508,0.41797 25.2266,2.90235 v 0.76172 m 0,-3.05469 c -4.9141,-13.27735 -10.0547,-24.4336 -15.0039,-33.69531 -11.0039,-3.19532 -22.5235,-3.79297 -29.6172,-3.79297 -4.2031,0 -6.8516,0.20703 -6.9219,0.21484 -0.012,0 -0.023,0 -0.031,0 -0.1875,0 -0.3477,-0.14453 -0.3633,-0.33594 -0.02,-0.19922 0.1054,-0.375 0.332,-0.39453 0.07,-0.004 2.7305,-0.21484 6.9531,-0.21484 6.9961,0 18.2813,0.57812 29.168,3.6289 -3.1484,-5.83593 -6.2148,-10.90234 -9.0859,-15.26171 -7.5469,-4.23829 -15.7696,-4.70313 -18.9961,-4.70313 -0.8789,0 -1.3868,0.0352 -1.4102,0.0352 -0.012,0.004 -0.019,0.004 -0.027,0.004 -0.1914,0 -0.3515,-0.14843 -0.3672,-0.33984 -0.012,-0.20313 0.1172,-0.375 0.3399,-0.39063 0.023,-0.004 0.5469,-0.0391 1.4492,-0.0391 3.1289,0 10.8125,0.42578 18.1562,4.14453 -2.2734,-3.38672 -4.414,-6.32422 -6.371,-8.83984 0.3164,0.004 0.625,0.008 0.9296,0.0156 2.0821,2.70704 4.3672,5.875 6.793,9.54688 l 0.039,0.0195 c 0.1094,0.0664 0.1563,0.17578 0.1641,0.28906 2.9609,4.50782 6.125,9.75782 9.3711,15.81641 0.1093,0.0664 0.1679,0.18359 0.1679,0.30859 0.6836,1.28516 1.3711,2.60157 2.0625,3.95703 1.1993,-1.59765 5.7969,-7.57421 12.2696,-14.14453 v 1.04688 c -6.625,6.80078 -11.1719,12.84375 -11.8985,13.82422 3.961,7.82812 7.9961,16.86328 11.8985,27.21093 v 2.08985"
           id="path96"
           inkscape:connector-curvature="0" />
        <path
           style="fill:#fadcd7;fill-opacity:1;fill-rule:nonzero;stroke:none"
           d="m 1793.5168,-240.68728 c -0.1953,-0.0547 -0.3828,-0.11719 -0.5703,-0.17969 0.1875,0.0625 0.375,0.12109 0.5703,0.17969"
           id="path396"
           inkscape:connector-curvature="0" />
        <path
           style="fill:#cfb0dc;fill-opacity:1;fill-rule:nonzero;stroke:none"
           d="m 1800.3957,-238.99197 c -1.8477,-0.42188 -3.9922,-0.94531 -6.3985,-1.5625 -0.164,-0.0391 -0.3242,-0.0859 -0.4804,-0.13281 0.1562,0.043 0.3164,0.0859 0.4804,0.1289 2.4063,0.6211 4.5469,1.14063 6.3985,1.5625 0,0 0,0 0,0 0,0 0,0 0,0.004"
           id="path398"
           inkscape:connector-curvature="0" />
      </g>
      <g
         transform="matrix(1.9711854,-1.9035773,1.9711853,1.9035773,-3227.388,4608.1737)"
         id="g946">
        <path
           style="fill:#d7cfeb;fill-opacity:1;fill-rule:nonzero;stroke:none"
           d="m 2055.9191,-149.7576 c 0.059,0.0742 0.2539,-6.42187 9.9922,-12.23437 9.9219,-6.19922 30.5508,-4.15235 33.5039,-10.54688 3.0938,-6.84765 -9.9609,-5.92968 -15.3086,-11.38672 -5.3906,-5.57812 -7.1601,-8.10937 0.7188,-9.25 7.8359,-1.01562 12.5586,-1.41406 12.8789,-7.85156 0.332,-6.51172 12.9375,-2.67578 19.5976,-7.08984 6.8555,-4.39844 3.5899,-10.97656 -8.9258,-11.29297 -12.3164,-0.008 -12.6523,-2.05859 -9.0078,-3.76172 3.586,-1.6875 14.5117,-4.35156 10.1367,-7.93359 -4.496,-3.62891 -11.4843,-1.00782 -7.6289,-4.98438 3.8086,-4.01562 12.5625,-6.58984 8.6329,-11.39453 -3.918,-4.86328 -14.7188,-5.01172 -21.4883,6.69141 -6.6328,11.67187 -8.8164,14.91015 -14.8047,15.89843 -2.7188,0.49219 -5.2813,-0.66406 -7.9766,-1.8164 -3.1015,-1.32422 -6.375,-2.65235 -10.2539,-1.48047 -7.1953,2.28125 -6.2148,9.10937 -2.2461,13.82422 4.0781,4.73047 10.793,14.03906 6.2149,17.78906 -4.418,3.79297 -9.2032,-2.41406 -15.293,-3.81641 -6.7617,-1.55468 -14.832,3.86329 -8.9219,13.55469 6.168,9.56641 16.0391,17.38281 15.1133,38.6836 1.6797,-0.56641 3.3711,-1.10157 5.0664,-1.60157"
           id="path40"
           inkscape:connector-curvature="0" />
        <path
           style="fill:#c2b8e1;fill-opacity:1;fill-rule:nonzero;stroke:none"
           d="m 2074.8215,-174.27713 c -0.031,-0.24219 -0.078,-0.48437 -0.1407,-0.71875 4.7032,-0.46094 9.1914,-0.57422 12.4883,-0.57422 3.1875,0 5.2617,0.10547 5.3242,0.10938 0.2032,0.008 0.3555,0.18359 0.3438,0.38672 -0.012,0.1914 -0.1719,0.34375 -0.3672,0.34375 0,0 -0.012,0 -0.019,0 -0.062,-0.004 -2.1328,-0.10938 -5.3125,-0.10938 -3.2578,0 -7.6836,0.10938 -12.3164,0.5625 m -12.7227,-3.1914 c 3.8555,-10.17188 7.836,-19.07032 11.7422,-26.79297 -0.6758,-0.91797 -4.6953,-6.26172 -10.6328,-12.50782 -0.2774,-0.75781 -0.5625,-1.40234 -0.8047,-1.89453 6.2305,6.38282 10.6367,12.11719 11.8086,13.67578 0.6914,-1.35546 1.3789,-2.67187 2.0625,-3.95703 0,-0.125 0.062,-0.24218 0.168,-0.30859 3.2461,-6.05859 6.4101,-11.30859 9.3711,-15.81641 0.012,-0.11718 0.055,-0.22656 0.164,-0.28906 l 0.039,-0.0195 c 10.4063,-15.75781 18.2735,-22.29688 18.4297,-22.42188 0.066,-0.0547 0.1485,-0.082 0.2305,-0.082 0.1055,0 0.2109,0.0469 0.2851,0.13672 0.125,0.15625 0.1016,0.38672 -0.059,0.51563 -0.1484,0.12109 -7.5781,6.29687 -17.5351,21.1289 7.3437,-3.71875 15.0312,-4.14453 18.1562,-4.14453 0.9063,0 1.4258,0.0352 1.4492,0.0352 0.2227,0.0195 0.3555,0.1914 0.3399,0.39453 -0.016,0.19141 -0.1758,0.33594 -0.3672,0.33594 -0.01,0 -0.016,0 -0.023,0 -0.023,0 -0.5312,-0.0352 -1.4101,-0.0352 -3.2266,0 -11.4493,0.46484 -19,4.70313 -2.8711,4.35937 -5.9375,9.42578 -9.086,15.26171 10.8867,-3.05078 22.168,-3.63281 29.1641,-3.63281 4.2265,0 6.8867,0.21485 6.957,0.21875 0.2266,0.0156 0.3516,0.19531 0.336,0.39453 -0.02,0.19141 -0.1797,0.33594 -0.3672,0.33594 -0.01,0 -0.019,0 -0.031,0 -0.066,-0.008 -2.7188,-0.21875 -6.9219,-0.21875 -7.0938,0 -18.6133,0.60156 -29.6172,3.79688 -4.5781,8.57421 -9.3242,18.76953 -13.9023,30.76562 -0.3165,0.16016 -0.629,0.30469 -0.9454,0.42188"
           id="path42"
           inkscape:connector-curvature="0" />
      </g>
    </g>
    <path
       style="fill:#9e94d1;fill-opacity:1;fill-rule:nonzero;stroke:none;stroke-width:2.73945379"
       d="m 737.65121,251.04976 c -2.27925,-1.10042 -4.29666,-2.60243 -6.04451,-4.23094 -0.008,-0.008 -0.0158,-0.0152 -0.0231,-0.0223 1.75615,1.65023 3.77297,3.15282 6.05992,4.26069 m -6.21393,-4.67706 -0.0231,-0.0223 c -0.46199,-0.90719 -1.01624,-1.9781 -1.65542,-3.19003 0.63918,1.21193 1.19343,2.28284 1.65542,3.19003 l 0.0231,0.0223"
       id="path224"
       inkscape:connector-curvature="0" />
    <path
       style="fill:#8a7dc7;fill-opacity:1;fill-rule:nonzero;stroke:none;stroke-width:2.73945379"
       d="m 729.75876,243.16037 c -1.63246,-3.07839 -3.8269,-7.0566 -6.38321,-11.57767 2.55631,4.52107 4.75075,8.49928 6.38321,11.57767"
       id="path226"
       inkscape:connector-curvature="0" />
    <path
       style="fill:#2e3087;fill-opacity:1;fill-rule:nonzero;stroke:none;stroke-width:2.73945379"
       d="m 723.37555,231.5827 c -2.49487,-4.41682 -5.32849,-9.33931 -8.30055,-14.45527 2.97206,5.11596 5.80568,10.03845 8.30055,14.45527"
       id="path228"
       inkscape:connector-curvature="0" />
  </g>
</svg>
